HIERARCHY
ROOT Hips
{
  OFFSET 5.84602e-005 68.8428 3.50346
  CHANNELS 6 Xposition Yposition Zposition Zrotation Xrotation Yrotation
  JOINT Spine
  {
    OFFSET 0 8.597 -4.6522
    CHANNELS 3 Zrotation Xrotation Yrotation
    JOINT Spine1
    {
      OFFSET 0 7.8454 0.4098
      CHANNELS 3 Zrotation Xrotation Yrotation
      JOINT Spine2
      {
        OFFSET 0 9.7078 -2.1609
        CHANNELS 3 Zrotation Xrotation Yrotation
        JOINT Neck
        {
          OFFSET 0 21.8761 -0.4549
          CHANNELS 3 Zrotation Xrotation Yrotation
          JOINT Head
          {
            OFFSET 0 12.3537 3.3602
            CHANNELS 3 Zrotation Xrotation Yrotation
            End Site
            {
              OFFSET 0.0001 18.9506 0.5657
            }
          }
        }
        JOINT LeftShoulder
        {
          OFFSET 2.2086 21.1115 7.2329
          CHANNELS 3 Zrotation Xrotation Yrotation
          JOINT LeftArm
          {
            OFFSET 13.1193 3.0282 -4.8998
            CHANNELS 3 Zrotation Xrotation Yrotation
            JOINT LeftForeArm
            {
              OFFSET 27.4081 -0.0973053 -0.2375
              CHANNELS 3 Zrotation Xrotation Yrotation
              JOINT LeftHand
              {
                OFFSET 22.8641 0.0662994 -0.1369
                CHANNELS 3 Zrotation Xrotation Yrotation
                JOINT LeftHandIndex1
                {
                  OFFSET 8.8614 0.775009 2.4612
                  CHANNELS 3 Zrotation Xrotation Yrotation
                  JOINT LeftHandIndex2
                  {
                    OFFSET 3.3146 -0.808304 0.5841
                    CHANNELS 3 Zrotation Xrotation Yrotation
                    JOINT LeftHandIndex3
                    {
                      OFFSET 2.2628 -0.552002 0.3989
                      CHANNELS 3 Zrotation Xrotation Yrotation
                      End Site
                      {
                        OFFSET 1.6102 -0.4807 0.2612
                      }
                    }
                  }
                }
                JOINT LeftHandMiddle1
                {
                  OFFSET 8.9937 0.895004 0.2143
                  CHANNELS 3 Zrotation Xrotation Yrotation
                  JOINT LeftHandMiddle2
                  {
                    OFFSET 4.0984 0.0113983 -0.0242
                    CHANNELS 3 Zrotation Xrotation Yrotation
                    JOINT LeftHandMiddle3
                    {
                      OFFSET 2.2716 0.00689697 -0.0138001
                      CHANNELS 3 Zrotation Xrotation Yrotation
                      End Site
                      {
                        OFFSET 2.0404 -0.1441 0.0027
                      }
                    }
                  }
                }
                JOINT LeftHandRing1
                {
                  OFFSET 8.5234 0.597198 -2.0164
                  CHANNELS 3 Zrotation Xrotation Yrotation
                  JOINT LeftHandRing2
                  {
                    OFFSET 3.7188 -0.188293 -0.2328
                    CHANNELS 3 Zrotation Xrotation Yrotation
                    JOINT LeftHandRing3
                    {
                      OFFSET 2.1191 -0.106598 -0.1332
                      CHANNELS 3 Zrotation Xrotation Yrotation
                      End Site
                      {
                        OFFSET 1.8737 -0.2304 -0.0886
                      }
                    }
                  }
                }
                JOINT LeftHandPinky1
                {
                  OFFSET 7.9094 -0.601089 -3.4825
                  CHANNELS 3 Zrotation Xrotation Yrotation
                  JOINT LeftHandPinky2
                  {
                    OFFSET 2.2874 -0.477005 -0.6314
                    CHANNELS 3 Zrotation Xrotation Yrotation
                    JOINT LeftHandPinky3
                    {
                      OFFSET 1.6774 -0.349396 -0.4633
                      CHANNELS 3 Zrotation Xrotation Yrotation
                      End Site
                      {
                        OFFSET 1.4888 -0.4091 -0.3416
                      }
                    }
                  }
                }
                JOINT LeftHandThumb1
                {
                  OFFSET 1.833 -1.3875 1.3896
                  CHANNELS 3 Zrotation Xrotation Yrotation
                  JOINT LeftHandThumb2
                  {
                    OFFSET 3.4129 -1.121 2.5732
                    CHANNELS 3 Zrotation Xrotation Yrotation
                    JOINT LeftHandThumb3
                    {
                      OFFSET 2.2474 -0.804199 1.6192
                      CHANNELS 3 Zrotation Xrotation Yrotation
                      End Site
                      {
                        OFFSET 1.6527 -0.5689 1.1317
                      }
                    }
                  }
                }
              }
            }
          }
        }
        JOINT RightShoulder
        {
          OFFSET -2.2086 21.1115 7.2329
          CHANNELS 3 Zrotation Xrotation Yrotation
          JOINT RightArm
          {
            OFFSET -13.1216 3.0287 -4.9007
            CHANNELS 3 Zrotation Xrotation Yrotation
            JOINT RightForeArm
            {
              OFFSET -27.4081 -0.0973053 -0.2375
              CHANNELS 3 Zrotation Xrotation Yrotation
              JOINT RightHand
              {
                OFFSET -22.8641 0.0664063 -0.1369
                CHANNELS 3 Zrotation Xrotation Yrotation
                JOINT RightHandIndex1
                {
                  OFFSET -8.8614 0.774994 2.4612
                  CHANNELS 3 Zrotation Xrotation Yrotation
                  JOINT RightHandIndex2
                  {
                    OFFSET -3.3146 -0.808304 0.5841
                    CHANNELS 3 Zrotation Xrotation Yrotation
                    JOINT RightHandIndex3
                    {
                      OFFSET -2.2628 -0.552002 0.3989
                      CHANNELS 3 Zrotation Xrotation Yrotation
                      End Site
                      {
                        OFFSET -1.6102 -0.4807 0.2612
                      }
                    }
                  }
                }
                JOINT RightHandMiddle1
                {
                  OFFSET -8.9937 0.894989 0.2143
                  CHANNELS 3 Zrotation Xrotation Yrotation
                  JOINT RightHandMiddle2
                  {
                    OFFSET -4.0984 0.0113983 -0.0242
                    CHANNELS 3 Zrotation Xrotation Yrotation
                    JOINT RightHandMiddle3
                    {
                      OFFSET -2.2716 0.00691223 -0.0138001
                      CHANNELS 3 Zrotation Xrotation Yrotation
                      End Site
                      {
                        OFFSET -2.0404 -0.1441 0.0027
                      }
                    }
                  }
                }
                JOINT RightHandRing1
                {
                  OFFSET -8.5234 0.597198 -2.0164
                  CHANNELS 3 Zrotation Xrotation Yrotation
                  JOINT RightHandRing2
                  {
                    OFFSET -3.7188 -0.188309 -0.2328
                    CHANNELS 3 Zrotation Xrotation Yrotation
                    JOINT RightHandRing3
                    {
                      OFFSET -2.1191 -0.106598 -0.1332
                      CHANNELS 3 Zrotation Xrotation Yrotation
                      End Site
                      {
                        OFFSET -1.8737 -0.2304 -0.0886
                      }
                    }
                  }
                }
                JOINT RightHandPinky1
                {
                  OFFSET -7.9094 -0.601105 -3.4825
                  CHANNELS 3 Zrotation Xrotation Yrotation
                  JOINT RightHandPinky2
                  {
                    OFFSET -2.2874 -0.477005 -0.6314
                    CHANNELS 3 Zrotation Xrotation Yrotation
                    JOINT RightHandPinky3
                    {
                      OFFSET -1.6774 -0.349396 -0.4633
                      CHANNELS 3 Zrotation Xrotation Yrotation
                      End Site
                      {
                        OFFSET -1.4888 -0.4091 -0.3416
                      }
                    }
                  }
                }
                JOINT RightHandThumb1
                {
                  OFFSET -1.833 -1.38751 1.3896
                  CHANNELS 3 Zrotation Xrotation Yrotation
                  JOINT RightHandThumb2
                  {
                    OFFSET -3.41299 -1.12099 2.5732
                    CHANNELS 3 Zrotation Xrotation Yrotation
                    JOINT RightHandThumb3
                    {
                      OFFSET -2.24741 -0.804108 1.6192
                      CHANNELS 3 Zrotation Xrotation Yrotation
                      End Site
                      {
                        OFFSET -1.6527 -0.5689 1.1317
                      }
                    }
                  }
                }
              }
            }
          }
        }
      }
    }
  }
  JOINT RightUpLeg
  {
    OFFSET -9.1966 3.8861 -0.7581
    CHANNELS 3 Zrotation Xrotation Yrotation
    JOINT RightLeg
    {
      OFFSET -0.7359 -41.0265 0
      CHANNELS 3 Zrotation Xrotation Yrotation
      JOINT RightFoot
      {
        OFFSET 0 -40.2855 0
        CHANNELS 3 Zrotation Xrotation Yrotation
        JOINT RightToeBase
        {
          OFFSET 0 -5.6122 11.7359
          CHANNELS 3 Zrotation Xrotation Yrotation
          End Site
          {
            OFFSET 0 0 7.8731
          }
        }
      }
    }
  }
  JOINT LeftUpLeg
  {
    OFFSET 9.1965 3.8864 -0.7581
    CHANNELS 3 Zrotation Xrotation Yrotation
    JOINT LeftLeg
    {
      OFFSET 0.7359 -41.0268 0
      CHANNELS 3 Zrotation Xrotation Yrotation
      JOINT LeftFoot
      {
        OFFSET 0 -40.2855 0
        CHANNELS 3 Zrotation Xrotation Yrotation
        JOINT LeftToeBase
        {
          OFFSET 0 -5.6122 11.7359
          CHANNELS 3 Zrotation Xrotation Yrotation
          End Site
          {
            OFFSET 0 0 7.8731
          }
        }
      }
    }
  }
}
MOTION
Frames:	4
Frame Time:	0.0333333
5.84602e-005 68.8428 3.50346 0 0 -0 0 0 -0 0 0 -0 0 0 -0 0 0 -0 0 0 -0 0 0 -0 0 0 -0 0 0 -0 0 0 -0 0 0 -0 0 0 -0 0 0 -0 0 0 -0 -0.0146107 -8.87603e-005 -2.63497e-007 2.99804e-018 -2.42657e-020 -1.42182e-022 0 0 -0 -0.0187562 -0.001176 5.858e-005 5.06224e-018 3.88251e-019 1.21329e-020 0 0 -0 -0.012269 -0.00324817 0.000675346 -1.74678e-018 3.88251e-019 -0 0 0 -0 0 0 -0 0 0 -0 0 0 -0 0 0 -0 0 0 -0 0 0 -0 0 0 -0 0 0 -0 0 0 -0 0 0 -0 0.0149955 -9.10982e-005 2.64101e-007 -9.69331e-018 1.21329e-020 -4.7394e-023 0 0 -0 0.0189956 -0.00119102 -5.96516e-005 -5.41541e-019 0 2.42657e-020 0 0 -0 0.0122698 -0.00324857 -0.000673756 -2.00796e-019 0 -1.94126e-019 0 0 -0 0 0 -0 0 0 -0 3.39842 1.33031 -0.0637918 -5.65207e-008 0.834868 -0.000436188 -3.39935 -2.16518 -0.0642563 -8.89002e-024 -1.18485e-023 -1.48106e-024 -3.39844 1.35642 0.0640283 -3.18788e-007 0.782166 -0.000588827 3.39931 -2.13858 0.0634662 1.1399e-023 0 -0 
29.6786 19.7857 7.26843 -0 -66.6681 -0 -1.38755 11.6902 -1.01256 -2.64427 23.4007 -1.78632 -2.64427 23.4007 -1.78632 -2.833e-005 14.1069 7.97746e-007 5.35234e-007 4.51471 -2.22953e-006 -9.61762 2.32152 -1.56543 -59.6932 -6.46757 -40.2619 -0.915089 13.0445 -4.81779 -4.00439 3.63274 20.6803 -1.38103e-007 3.36078e-007 2.23387e-007 -2.76207e-007 6.72156e-007 4.46774e-007 -1.38103e-007 3.36078e-007 2.23387e-007 -1.38103e-007 3.36078e-007 2.23387e-007 -0.0145831 -8.93337e-005 7.17671e-007 -1.38105e-007 3.3605e-007 2.2343e-007 -1.38103e-007 3.36078e-007 2.23387e-007 -0.0187872 -0.00117687 6.03371e-005 -1.90911e-006 5.31677e-007 -1.56536e-006 -1.38103e-007 3.36078e-007 2.23387e-007 -0.0123038 -0.00325451 0.000673491 -1.38097e-007 3.36054e-007 2.23427e-007 -1.38103e-007 3.36078e-007 2.23387e-007 -2.76207e-007 6.72156e-007 4.46774e-007 -1.38103e-007 3.36078e-007 2.23387e-007 -0.241733 -7.18301 3.22243 47.247 24.5403 16.178 44.0268 20.5195 50.3461 -28.2978 14.1771 5.96043 2.20695e-032 -3.97569e-016 3.18055e-015 3.18055e-015 1.19271e-015 -3.18055e-015 6.36111e-015 -3.57812e-015 -1.59028e-015 2.20695e-032 -3.97569e-016 3.18055e-015 0.0150023 -8.97195e-005 -7.12929e-006 3.18055e-015 9.93923e-015 3.18055e-015 2.20695e-032 -3.97569e-016 3.18055e-015 0.0190119 -0.00119668 -6.19431e-005 3.18055e-015 -1.59028e-015 1.59028e-015 2.20695e-032 -3.97569e-016 3.18055e-015 0.0122457 -0.0032478 -0.000683683 3.18055e-015 -5.96354e-015 -3.18055e-015 2.20695e-032 -3.97569e-016 3.18055e-015 3.18055e-015 1.19271e-015 -3.18055e-015 6.36111e-015 -3.57812e-015 -1.59028e-015 -34.1302 -32.0741 -1.72479 2.40554 77.1189 -4.63285 -24.0451 18.2633 8.90338 -3.18055e-015 3.18055e-015 -3.18055e-015 32.2367 -6.44974 -3.30408 -28.3269 26.855 14.8532 17.2546 28.4885 8.47848 2.44795e-006 6.00679e-007 -3.74192e-006 
42.9326 -1.90091 5.84339 -180 -83.3313 -180 -2.21532 16.9356 -1.31045 -4.30807 33.9077 -2.04236 -4.30806 33.9077 -2.04236 4.76764e-005 20.2713 -3.22595e-005 -3.80434e-007 6.18038 1.83415e-006 -13.7756 3.18064 -2.29435 -89.1125 -6.4241 -58.5314 -0.573495 18.8405 -7.19235 -6.59378 4.83241 29.9774 3.86375e-008 1.73412e-006 -2.63037e-006 1.85819e-006 -2.58452e-006 -2.81378e-006 7.81914e-007 7.0031e-007 -3.75588e-006 3.86375e-008 1.73412e-006 -2.63037e-006 -0.014543 -9.10827e-005 -6.29145e-006 7.82131e-007 7.00788e-007 -3.7558e-006 3.86375e-008 1.73412e-006 -2.63037e-006 -0.0187524 -0.00117611 5.33713e-005 7.8216e-007 7.00942e-007 -3.75578e-006 3.86375e-008 1.73412e-006 -2.63037e-006 -0.0122262 -0.00323882 0.000672621 7.81997e-007 7.00755e-007 -3.75584e-006 3.86375e-008 1.73412e-006 -2.63037e-006 1.85819e-006 -2.58452e-006 -2.81378e-006 7.81914e-007 7.0031e-007 -3.75588e-006 -0.0828848 -10.3972 4.71338 63.2388 33.9892 25.9692 55.2818 15.8759 73.177 -42.2985 20.4004 9.63406 1.59028e-015 -2.46493e-014 -0 -4.77083e-015 -2.38542e-014 -1.59028e-015 -1.36831e-030 -2.46493e-014 -3.18055e-015 1.59028e-015 -2.46493e-014 -0 0.0149727 -8.77783e-005 -4.63523e-006 3.18055e-015 7.95139e-016 -0 1.59028e-015 -2.46493e-014 -0 0.0190331 -0.00119846 -5.7876e-005 -1.59028e-015 -4.77083e-015 -1.59028e-015 1.59028e-015 -2.46493e-014 -0 0.0122458 -0.00323731 -0.000676805 -3.18055e-015 -3.18055e-015 -4.77083e-015 1.59028e-015 -2.46493e-014 -0 -4.77083e-015 -2.38542e-014 -1.59028e-015 -1.36831e-030 -2.46493e-014 -3.18055e-015 -50.4581 -46.2233 -3.35732 178.381 69.5051 177.615 -35.776 27.5263 13.222 -1.59028e-015 3.18055e-015 -0 48.2997 -10.2132 -4.97319 -47.2016 38.4094 23.0641 18.8167 41.527 16.3792 -3.8627e-007 1.67868e-007 6.93613e-008 
40.0012 2.98409 6.18523 -180 -89.9981 -180 -2.02421 15.8911 -1.24703 -3.91281 31.8154 -2.00538 -3.91281 31.8154 -2.00538 -5.98374e-005 18.4947 3.22819e-005 -3.3584e-007 4.99694 -2.14873e-006 -12.5673 2.58044 -2.18186 -82.597 -6.53763 -54.5032 -0.693201 17.5589 -6.64681 -5.8947 4.49457 27.7621 1.06261e-006 -1.65899e-006 -1.62266e-006 3.54203e-007 -5.52996e-007 -5.40887e-007 3.54203e-007 -5.52996e-007 -5.40887e-007 1.06261e-006 -1.65899e-006 -1.62266e-006 -0.0146081 -8.48669e-005 -1.12759e-005 3.54211e-007 -5.52927e-007 -5.40958e-007 1.06261e-006 -1.65899e-006 -1.62266e-006 -0.0187275 -0.00117542 5.71714e-005 3.54209e-007 -5.52908e-007 -5.40981e-007 1.06261e-006 -1.65899e-006 -1.62266e-006 -0.0121865 -0.00323031 0.000675845 3.54192e-007 -5.52939e-007 -5.40956e-007 1.06261e-006 -1.65899e-006 -1.62266e-006 3.54203e-007 -5.52996e-007 -5.40887e-007 3.54203e-007 -5.52996e-007 -5.40887e-007 -0.132891 -9.6844 4.37862 60.0229 32.0386 23.5784 52.4352 18.0178 69.0761 -39.6186 18.962 10.3043 -3.18055e-015 -3.02153e-014 7.95139e-015 -3.18055e-015 -3.29983e-014 6.36111e-015 -1.59028e-014 -2.78299e-014 9.54166e-015 -3.18055e-015 -3.02153e-014 7.95139e-015 0.0149707 -8.77666e-005 7.02586e-007 -3.18055e-015 -2.38542e-015 1.59028e-015 -3.18055e-015 -3.02153e-014 7.95139e-015 0.019048 -0.00119484 -5.84539e-005 -6.36111e-015 0 -1.59028e-015 -3.18055e-015 -3.02153e-014 7.95139e-015 0.0122127 -0.00323054 -0.000665633 3.18055e-015 -6.36111e-015 1.59028e-015 -3.18055e-015 -3.02153e-014 7.95139e-015 -3.18055e-015 -3.29983e-014 6.36111e-015 -1.59028e-014 -2.78299e-014 9.54166e-015 -46.6407 -43.0903 -2.72495 177.355 76.9411 179.127 -33.077 25.5386 12.2894 -3.89549e-008 -3.88761e-007 -3.86605e-007 44.558 -9.21959 -4.61876 -42.1823 35.6851 20.4876 18.676 38.9649 14.5336 -3.90819e-007 1.57226e-007 6.70286e-008 
